# xmcd
#
# Track frame offsets:
#	150
#	10979
#	21160
#	31697
#	43839
#	55011
#	66544
#	78036
#	91310
#	102588
#	113995
#	123926
#	137208
#	149207
#	160047
#	175695
#	188376
#	200306
#	208465
#	218426
#
# Disc length: 3046 seconds
#
# Revision: 0
# Processed by: cddbd v1.5.2PL0 Copyright (c) Steve Scherf et al.
# Submitted via: EasyCDDAExtractor 11.1.0.1
#
DISCID=180be414
DTITLE=Willie Nelson - Ultimate Collection Cd2
DYEAR=2000
DGENRE=Country
TTITLE0=Hello Walls
TTITLE1=There'll Be No Teardrops Tonight
TTITLE2=Is This My Destiny
TTITLE3=Willingly
TTITLE4=River Boy
TTITLE5=Undo The Right
TTITLE6=Take Me As I Am (Or Let Me Go)
TTITLE7=The Last Letter
TTITLE8=I Hope So
TTITLE9=There Goes A Man
TTITLE10=Right Or Wrong
TTITLE11=Three Days
TTITLE12=Our Chain Of Love
TTITLE13=Together
TTITLE14=Fire To Fire
TTITLE15=Am I Blue
TTITLE16=Tomorrow Night (You'll Have Another Sweetheart)
TTITLE17=Take My Word
TTITLE18=Touch Me
TTITLE19=You Dream About Me
EXTD=
EXTT0=
EXTT1=
EXTT2=
EXTT3=
EXTT4=
EXTT5=
EXTT6=
EXTT7=
EXTT8=
EXTT9=
EXTT10=
EXTT11=
EXTT12=
EXTT13=
EXTT14=
EXTT15=
EXTT16=
EXTT17=
EXTT18=
EXTT19=
PLAYORDER=
